<svg id="visual" viewBox="0 0 1920 300" width="1920" height="300" xmlns="http://www.w3.org/2000/svg" xmlns:xlink="http://www.w3.org/1999/xlink" version="1.1"><path d="M0 185L40 170.2C80 155.3 160 125.7 240 139.3C320 153 400 210 480 206.2C560 202.3 640 137.7 720 129.8C800 122 880 171 960 173C1040 175 1120 130 1200 126.8C1280 123.7 1360 162.3 1440 191.5C1520 220.7 1600 240.3 1680 225.7C1760 211 1840 162 1880 137.5L1920 113L1920 301L1880 301C1840 301 1760 301 1680 301C1600 301 1520 301 1440 301C1360 301 1280 301 1200 301C1120 301 1040 301 960 301C880 301 800 301 720 301C640 301 560 301 480 301C400 301 320 301 240 301C160 301 80 301 40 301L0 301Z" fill="#152a38" stroke-linecap="round" stroke-linejoin="miter"></path></svg>